<svg width="110" height="110" viewBox="0 0 110 110" fill="none" xmlns="http://www.w3.org/2000/svg">
<rect width="110" height="110" fill="#312E38"/>
<path d="M51.8672 63.6426C51 64.8848 49.7871 65.8164 48.2285 66.4375C46.6816 67.0469 44.877 67.3516 42.8145 67.3516C40.7285 67.3516 38.877 66.8652 37.2598 65.8926C35.6426 64.9082 34.3887 63.5137 33.498 61.709C32.6191 59.9043 32.168 57.8125 32.1445 55.4336V53.2012C32.1445 49.3457 33.041 46.3574 34.834 44.2363C36.6387 42.1152 39.1699 41.0547 42.4277 41.0547C45.0996 41.0547 47.25 41.7402 48.8789 43.1113C50.5078 44.4707 51.5039 46.4043 51.8672 48.9121H48.4922C47.8594 45.5254 45.8438 43.832 42.4453 43.832C40.1836 43.832 38.4668 44.6289 37.2949 46.2227C36.1348 47.8047 35.5488 50.1016 35.5371 53.1133V55.2051C35.5371 58.0762 36.1934 60.3613 37.5059 62.0605C38.8184 63.748 40.5938 64.5918 42.832 64.5918C44.0977 64.5918 45.2051 64.4512 46.1543 64.1699C47.1035 63.8887 47.8887 63.4141 48.5098 62.7461V56.998H42.5859V54.2559H51.8672V63.6426Z" fill="white"/>
<path d="M57.9707 67V41.4062H66.3379C69.1152 41.4062 71.2012 41.9805 72.5957 43.1289C74.002 44.2773 74.7051 45.9766 74.7051 48.2266C74.7051 49.4219 74.3652 50.4824 73.6855 51.4082C73.0059 52.3223 72.0801 53.0312 70.9082 53.5352C72.291 53.9219 73.3809 54.6602 74.1777 55.75C74.9863 56.8281 75.3906 58.1172 75.3906 59.6172C75.3906 61.9141 74.6465 63.7188 73.1582 65.0312C71.6699 66.3438 69.5664 67 66.8477 67H57.9707ZM61.3457 55.0293V64.2402H66.918C68.4883 64.2402 69.7246 63.8359 70.627 63.0273C71.541 62.207 71.998 61.082 71.998 59.6523C71.998 56.5703 70.3223 55.0293 66.9707 55.0293H61.3457ZM61.3457 52.3223H66.4434C67.9199 52.3223 69.0977 51.9531 69.9766 51.2148C70.8672 50.4766 71.3125 49.4746 71.3125 48.209C71.3125 46.8027 70.9023 45.7832 70.082 45.1504C69.2617 44.5059 68.0137 44.1836 66.3379 44.1836H61.3457V52.3223Z" fill="#FF9000"/>
</svg>
